<svg xmlns="http://www.w3.org/2000/svg" xmlns:xlink="http://www.w3.org/1999/xlink" width="500" zoomAndPan="magnify" viewBox="0 0 375 374.999991" height="500" preserveAspectRatio="xMidYMid meet" version="1.0"><path fill="#3a6b5f" d="M 187.453125 14.816406 L 217.394531 0.046875 L 240.796875 23.269531 L 273.847656 18.464844 L 288.925781 47.792969 L 321.832031 53.4375 L 327.113281 85.980469 L 356.675781 101.519531 L 351.636719 134.109375 L 374.945312 158.015625 L 360.089844 187.453125 L 374.859375 217.394531 L 351.636719 240.796875 L 356.441406 273.847656 L 327.113281 288.925781 L 321.46875 321.832031 L 288.925781 327.113281 L 273.390625 356.675781 L 240.796875 351.636719 L 216.890625 374.945312 L 187.453125 360.089844 L 157.511719 374.859375 L 134.109375 351.636719 L 101.0625 356.441406 L 85.980469 327.113281 L 53.074219 321.46875 L 47.792969 288.925781 L 18.230469 273.390625 L 23.269531 240.796875 L -0.0390625 216.890625 L 14.816406 187.453125 L 0.046875 157.511719 L 23.269531 134.109375 L 18.464844 101.0625 L 47.792969 85.980469 L 53.4375 53.074219 L 85.980469 47.792969 L 101.519531 18.230469 L 134.109375 23.269531 L 158.015625 -0.0390625 Z M 187.453125 14.816406 " fill-opacity="1" fill-rule="evenodd"/><path fill="#ffffff" d="M 282.550781 107.515625 L 294.894531 119.863281 C 296.667969 121.632812 296.667969 124.527344 294.894531 126.300781 L 153.789062 267.398438 L 153.621094 267.566406 L 153.535156 267.640625 L 153.453125 267.714844 L 153.359375 267.789062 L 153.078125 267.988281 L 152.984375 268.050781 L 152.890625 268.109375 L 152.800781 268.164062 L 152.695312 268.21875 L 152.492188 268.3125 L 152.386719 268.359375 L 152.285156 268.40625 L 152.183594 268.445312 L 152.082031 268.480469 L 151.976562 268.519531 L 151.875 268.554688 L 151.773438 268.582031 L 151.671875 268.613281 L 151.558594 268.640625 L 151.457031 268.65625 L 151.351562 268.675781 L 151.242188 268.695312 L 151.128906 268.703125 L 151.015625 268.714844 L 150.90625 268.722656 L 150.792969 268.734375 L 150.34375 268.734375 L 150.234375 268.722656 L 150.121094 268.714844 L 150.007812 268.703125 L 149.898438 268.6875 L 149.671875 268.648438 L 149.570312 268.628906 L 149.457031 268.601562 L 149.152344 268.519531 L 149.046875 268.480469 L 148.945312 268.445312 L 148.84375 268.40625 L 148.742188 268.359375 L 148.636719 268.3125 L 148.433594 268.21875 L 148.328125 268.164062 C 148.265625 268.125 148.199219 268.089844 148.132812 268.050781 C 147.84375 267.875 147.574219 267.660156 147.320312 267.40625 L 134.988281 255.0625 L 134.957031 255.035156 L 80 200.078125 C 78.226562 198.304688 78.226562 195.414062 80 193.640625 L 92.335938 181.296875 C 94.109375 179.523438 97 179.523438 98.773438 181.296875 L 150.550781 233.070312 L 276.09375 107.527344 C 277.886719 105.746094 280.777344 105.746094 282.550781 107.515625 " fill-opacity="1" fill-rule="evenodd"/></svg>